<?xml version="1.0" encoding="UTF-8"?><svg id="Camada_1" xmlns="http://www.w3.org/2000/svg" viewBox="0 0 200 200"><defs><style>.favicon-1{fill:none;}.favicon-1,.favicon-2{stroke-width:0px;}.favicon-2{fill:#8f9fff;}</style></defs><rect class="favicon-1" width="200" height="200"/><path class="favicon-2" d="m102.59,193.8c-11.23,0-21.46-1.38-30.7-4.15-9.24-2.76-17.45-6.82-24.62-12.18-7.17-5.35-13.6-11.83-19.3-19.43l24.36-27.72c8.46,11.75,16.88,19.74,25.26,23.97,8.38,4.23,17.49,6.35,27.34,6.35,5.35,0,10.15-.73,14.38-2.2,4.23-1.47,7.55-3.58,9.98-6.35,2.42-2.76,3.63-6.05,3.63-9.85,0-2.76-.61-5.31-1.81-7.64-1.21-2.33-2.94-4.4-5.18-6.22-2.25-1.81-4.92-3.45-8.03-4.92-3.11-1.47-6.57-2.76-10.37-3.89-3.8-1.12-7.95-2.03-12.44-2.72-9.68-2.24-18.14-4.96-25.39-8.16-7.26-3.2-13.3-7.17-18.14-11.92-4.84-4.75-8.42-10.15-10.75-16.19-2.33-6.04-3.5-12.87-3.5-20.47s1.72-14.98,5.18-21.64c3.45-6.65,8.25-12.39,14.38-17.23,6.13-4.83,13.21-8.55,21.25-11.14,8.03-2.59,16.54-3.89,25.52-3.89,11.05,0,20.73,1.26,29.02,3.76,8.29,2.51,15.5,6.09,21.63,10.75,6.13,4.66,11.27,10.36,15.42,17.1l-24.62,23.84c-3.63-4.83-7.56-8.89-11.79-12.18-4.24-3.28-8.81-5.74-13.73-7.38-4.92-1.64-9.98-2.46-15.16-2.46-5.7,0-10.62.74-14.77,2.2-4.15,1.47-7.38,3.59-9.72,6.35-2.33,2.76-3.5,6.13-3.5,10.1,0,3.11.78,5.87,2.33,8.29,1.56,2.42,3.8,4.53,6.74,6.35,2.94,1.81,6.48,3.41,10.62,4.79,4.15,1.38,8.72,2.59,13.73,3.63,9.5,1.9,18.05,4.41,25.65,7.51,7.6,3.11,14.12,6.87,19.56,11.27,5.44,4.4,9.63,9.59,12.57,15.55,2.94,5.96,4.4,12.66,4.4,20.08,0,12.27-2.94,22.72-8.81,31.35-5.88,8.64-13.99,15.25-24.36,19.82-10.36,4.57-22.46,6.87-36.28,6.87Z"/></svg>